<svg height="30mm" viewBox="0 0 300 30" width="300mm" xmlns="http://www.w3.org/2000/svg"><g fill="#ababab" stroke-width=".123972" transform="translate(0 -267)"><path d="m271.04488 296.61128 8.94166-29 8.94166 29-23.44166-17.93421h29"/><path d="m242.04488 296.61128 8.94166-29 8.94166 29-23.44166-17.93421h29"/><path d="m213.04488 296.61128 8.94166-29 8.94166 29-23.44166-17.93421h29"/><path d="m184.04488 296.61128 8.94166-29 8.94166 29-23.44166-17.93421h29"/><path d="m155.04488 296.61128 8.94166-29 8.94166 29-23.44166-17.93421h29"/><path d="m126.04488 296.61128 8.94166-29 8.94166 29-23.44166-17.93421h29"/><path d="m97.04488 296.61128 8.94166-29 8.94166 29-23.44166-17.93421h29"/><path d="m68.04488 296.61128 8.94166-29 8.94166 29-23.44166-17.93421h29"/><path d="m39.04488 296.61128 8.94166-29 8.94166 29-23.44166-17.93421h29"/><path d="m10.04488 296.61128 8.94166-29 8.94166 29-23.44166-17.93421h29"/></g></svg>