<svg height="80" viewBox="0 0 52.916665 21.166667" width="200" xmlns="http://www.w3.org/2000/svg" xmlns:xlink="http://www.w3.org/1999/xlink"><filter id="a" color-interpolation-filters="sRGB" height="1.065388" width="1.032255" x="-.016127" y="-.032694"><feGaussianBlur stdDeviation=".25231486"/></filter><g transform="translate(0 -275.83332)"><rect fill="#fb889b" height="19.843752" rx="2.000001" ry="1.872612" width="38.73946" x="13.515748" y="276.49478"/><rect fill="none" height="19.84375" rx="1.311837" ry="1.295217" stroke="#13243c" stroke-width="1.322917" width="51.59375" x=".661458" y="276.49478"/><path d="m13.515748 276.49478 6.455553 10.00339-6.455553 9.87364z" fill="#13243c"/><path d="m.661458 276.49478h13.383457v19.84375h-13.383457z" fill="#13243c"/><path d="m14.045047 277.15558v.15917l5.926254 9.18342-5.926254 9.06404v.11524h36.89749c.37625 0 .650608-.27711.650608-.6351v-17.25166c0-.35798-.274358-.63511-.650608-.63511z" fill="none" filter="url(#a)" opacity=".428" stroke="#13243c" stroke-width="1.068"/><g transform="matrix(.03385417 0 0 .03385417 1.84816 279.626263)"><g stroke-width="7.815384"><path d="m726.7283-9.6484089h60.55906q20.48485 0 31.23101 3.1342948 14.44014 4.2536859 24.73854 15.1117788 10.2984 10.8580933 15.67147 26.6415063 5.37308 15.671474 5.37308 38.73093 0 20.260977-5.03726 34.924999-6.15665 17.91026-17.57444 28.99223-8.61931 8.39543-23.28333 13.09687-10.97003 3.47012-29.32805 3.47012h-62.35008zm33.13398 27.7608969v108.692872h24.73854q13.88045 0 20.0371-1.56715 8.05961-2.0149 13.32075-6.82829 5.37308-4.81338 8.73125-15.78341 3.35817-11.08197 3.35817-30.111618 0-19.029647-3.35817-29.216106-3.35817-10.186458-9.40288-15.895352-6.04471-5.708894-15.33566-7.723798-6.94022-1.567148-27.2012-1.567148z"/><path d="m915.79345 71.843258-28.54447-5.149199q4.81338-17.238622 16.56699-25.522115 11.7536-8.283494 34.925-8.283494 21.04455 0 31.34295 5.03726 10.29839 4.92532 14.44014 12.649118 4.25369 7.611859 4.25369 28.096715l-.33582 36.716027q0 15.67147 1.45521 23.17139 1.56714 7.38798 5.70889 15.89536h-31.11907q-1.23133-3.1343-3.02235-9.29095-.78358-2.79848-1.1194-3.69399-8.05961 7.83574-17.23862 11.75361-9.179 3.91786-19.58934 3.91786-18.35801 0-28.99223-9.96258-10.52227-9.96258-10.52227-25.18629 0-10.07452 4.81338-17.91026 4.81338-7.947677 13.43269-12.089424 8.73125-4.253686 25.07436-7.387981 22.052-4.141747 30.55937-7.723798v-3.134295q0-9.067067-4.47756-12.872996-4.47756-3.917869-16.9028-3.917869-8.39544 0-13.09688 3.358173-4.70144 3.246234-7.61186 11.529728zm42.0891 25.522115q-6.04471 2.014904-19.14158 4.813377-13.09688 2.79848-17.12669 5.48502-6.15665 4.36563-6.15665 11.08197 0 6.60441 4.92532 11.41779 4.92533 4.81338 12.53718 4.81338 8.50738 0 16.23117-5.59695 5.7089-4.25369 7.49992-10.41034 1.23133-4.02981 1.23133-15.33566z"/><path d="m1074.4112 35.574988v25.074359h-21.4923v47.909933q0 14.55209.5597 17.01475.6716 2.35072 2.7984 3.91787 2.2388 1.56714 5.3731 1.56714 4.3656 0 12.6491-3.02235l2.6866 24.40272q-10.9701 4.70144-24.8505 4.70144-8.5074 0-15.3357-2.79847-6.8283-2.91042-10.0745-7.38798-3.1343-4.58951-4.3656-12.31331-1.0075-5.48501-1.0075-22.16394v-51.827803h-14.4401v-25.074359h14.4401v-23.61915l31.5669-18.358013v41.977163z"/><path d="m1165.3057 116.6189 31.343 5.26114q-6.0447 17.23862-19.1416 26.30569-12.985 8.95512-32.5743 8.95512-31.0071 0-45.895-20.26097-11.7536-16.23117-11.7536-40.969715 0-29.551923 15.4476-46.23085 15.4476-16.790865 39.0667-16.790865 26.5296 0 41.8652 17.574439 15.3357 17.4625 14.664 53.618831h-78.8051q.3358 13.99239 7.6119 21.82812 7.276 7.7238 18.1341 7.7238 7.388 0 12.4253-4.02981 5.0372-4.0298 7.6118-12.98493zm1.791-31.790707q-.3358-13.65657-7.0521-20.708733-6.7164-7.164103-16.3431-7.164103-10.2984 0-17.0148 7.49992-6.7163 7.49992-6.6044 20.372916z"/><path d="m1224.0738 19.455758v-29.1041669h31.4548v29.1041669zm0 134.998562v-118.879332h31.4548v118.879332z"/></g><g stroke-width="7.815384"><path d="m523.94495 248.97723h65.59631q19.47741 0 28.99223 1.67909 9.62676 1.56715 17.12668 6.71634 7.61186 5.1492 12.64912 13.76851 5.03726 8.50738 5.03726 19.14159 0 11.52973-6.26859 21.15649-6.15665 9.62676-16.79086 14.44015 14.99984 4.36562 23.05945 14.8879 8.05962 10.52227 8.05962 24.73854 0 11.19391-5.26114 21.82812-5.1492 10.52228-14.21627 16.90281-8.95513 6.26859-22.16394 7.7238-8.28349.89551-39.96226 1.11939h-55.85761zm33.13397 27.31314v37.94736h21.71619q19.36546 0 24.06691-.5597 8.50737-1.00745 13.32075-5.82083 4.92532-4.92532 4.92532-12.873 0-7.61186-4.25369-12.3133-4.14174-4.81338-12.42524-5.82083-4.92532-.5597-28.32059-.5597zm0 65.2605v43.88013h30.67132q17.91025 0 22.72363-1.00745 7.38799-1.34327 11.97749-6.49247 4.70144-5.26114 4.70144-13.99239 0-7.38798-3.58205-12.53718-3.58205-5.1492-10.41034-7.49992-6.71634-2.35072-29.32804-2.35072z"/><path d="m719.39063 413.07996h-31.45489v-118.87933h29.2161v16.9028q7.49992-11.97748 13.4327-15.78341 6.04471-3.80593 13.65657-3.80593 10.74615 0 20.70873 5.93277l-9.7387 27.42508q-7.94768-5.1492-14.77596-5.1492-6.60441 0-11.19391 3.694-4.58951 3.58205-7.27604 13.09687-2.5746 9.51482-2.5746 39.85032z"/><path d="m771.1065 351.96121q0-15.67148 7.72379-30.3355 7.7238-14.66402 21.82813-22.38782 14.21627-7.7238 31.67877-7.7238 26.97732 0 44.21594 17.57444 17.23862 17.4625 17.23862 44.21595 0 26.97732-17.4625 44.77564-17.35056 17.68637-43.76819 17.68637-16.34311 0-31.23101-7.38798-14.77596-7.38798-22.49976-21.60424-7.72379-14.32821-7.72379-34.81306zm32.23846 1.67908q0 17.68638 8.39543 27.08927 8.39543 9.40288 20.70873 9.40288 12.31331 0 20.5968-9.40288 8.39543-9.40289 8.39543-27.31315 0-17.4625-8.39543-26.86538-8.28349-9.40288-20.5968-9.40288-12.3133 0-20.70873 9.40288-8.39543 9.40288-8.39543 27.08926z"/><path d="m940.69422 413.07996-37.61154-118.87933h30.55937l22.27588 77.90961 20.48486-77.90961h30.33551l19.8132 77.90961 22.7236-77.90961h31.0072l-38.1713 118.87933h-30.2235l-20.48487-76.45441-20.14904 76.45441z"/><path d="m1085.6553 379.16241 31.5669-4.81338q2.0149 9.179 8.1715 13.99238 6.1567 4.70145 17.2386 4.70145 12.2014 0 18.358-4.47757 4.1418-3.13429 4.1418-8.39543 0-3.58205-2.2388-5.93277-2.3507-2.23878-10.5223-4.14175-38.0593-8.39543-48.2457-15.33566-14.1043-9.62676-14.1043-26.75344 0-15.4476 12.2013-25.96987 12.2014-10.52228 37.8354-10.52228 24.4028 0 36.2683 7.94768 11.8656 7.94767 16.3431 23.50721l-29.6638 5.48501q-1.903-6.94022-7.2761-10.63421-5.2611-3.69399-15.1118-3.69399-12.4252 0-17.7983 3.47011-3.582 2.46266-3.582 6.38053 0 3.35817 3.1343 5.70889 4.2536 3.1343 29.328 8.84319 25.1863 5.7089 35.1489 13.99239 9.8506 8.39543 9.8506 23.39527 0 16.34311-13.6565 28.09672-13.6566 11.7536-40.4101 11.7536-24.2907 0-38.507-9.85064-14.1043-9.85064-18.47-26.75344z"/><path d="m1293.1904 375.24454 31.343 5.26114q-6.0447 17.23862-19.1416 26.30569-12.9849 8.95512-32.5743 8.95512-31.0071 0-45.895-20.26097-11.7536-16.23117-11.7536-40.96971 0-29.55193 15.4476-46.23085 15.4476-16.79087 39.0667-16.79087 26.5296 0 41.8653 17.57444 15.3356 17.4625 14.664 53.61883h-78.8051q.3358 13.99239 7.6118 21.82812 7.2761 7.7238 18.1341 7.7238 7.388 0 12.4253-4.0298 5.0372-4.02981 7.6118-12.98494zm1.7911-31.79071q-.3358-13.65657-7.0522-20.70873-6.7163-7.1641-16.3431-7.1641-10.2984 0-17.0147 7.49992-6.7164 7.49992-6.6044 20.37291z"/><path d="m1382.0701 413.07996h-31.4549v-118.87933h29.2161v16.9028q7.5-11.97748 13.4327-15.78341 6.0447-3.80593 13.6566-3.80593 10.7461 0 20.7087 5.93277l-9.7387 27.42508q-7.9476-5.1492-14.7759-5.1492-6.6044 0-11.1939 3.694-4.5895 3.58205-7.2761 13.09687-2.5746 9.51482-2.5746 39.85032z"/></g><g transform="matrix(9.60000001 0 0 10.37837858 -47.588579 -47.17042)"><path d="m44 40v-32c0-1.108-.892-2-2-2h-36c-1.108 0-2 .892-2 2v32c0 1.108.892 2 2 2h36c1.108 0 2-.892 2-2z" fill="#fb889b"/><path d="m44 40v-32c0-1.108-.892-2-2-2h-18v36h18c1.108 0 2-.892 2-2z" fill="#fff" opacity=".2"/><path d="m6 6c-1.108 0-2 .892-2 2v1c0-1.108.892-2 2-2h36c1.108 0 2 .892 2 2v-1c0-1.108-.892-2-2-2z" fill="#fff" opacity=".2"/><path d="m4 40v1c0 1.108.892 2 2 2h36c1.108 0 2-.892 2-2v-1c0 1.108-.892 2-2 2h-36c-1.108 0-2-.892-2-2z" opacity=".2"/><g><path d="m6 9h15v1h-15z"/><path d="m6 11h11v1h-11z"/><path d="m6 13h9v1h-9z"/><path d="m6 15h6v1h-6z"/><path d="m27 9h10v1h-10z"/><path d="m27 11h15v1h-15z"/><path d="m27 13h9v1h-9z"/><path d="m27 15h12v1h-12z"/></g><path d="m6 10h15v1h-15z" opacity=".2"/><path d="m6 12h11v1h-11z" opacity=".2"/><path d="m6 14h9v1h-9z" opacity=".2"/><path d="m6 16h6v1h-6z" opacity=".2"/><path d="m27 10h10v1h-10z" opacity=".2"/><path d="m27 12h15v1h-15z" opacity=".2"/><path d="m27 14h9v1h-9z" opacity=".2"/><path d="m27 16h12v1h-12z" opacity=".2"/></g></g></g></svg>