<svg height="80" viewBox="0 0 52.916665 21.166667" width="200" xmlns="http://www.w3.org/2000/svg" xmlns:xlink="http://www.w3.org/1999/xlink"><filter id="a" color-interpolation-filters="sRGB" height="1.123056" width="1.060702" x="-.030351" y="-.061528"><feGaussianBlur stdDeviation=".25231486"/></filter><g transform="translate(0 -275.83332)"><path d="m4.5180004 288.40126c.00226-6.27245.064123-7.73799.3395029-8.10439 1.2321044-1.64156 4.5153816-2.92786 8.6819027-3.40234.988252-.11235 4.555058-.13671 19.972704-.13671h18.768595v19.27617h-47.7615565zm0 0" fill="#fff" stroke-width=".187959"/><rect fill="#87cefa" height="19.84375" rx="1.311837" ry="1.295217" stroke="#13243c" stroke-width="1.322917" width="51.59375" x=".661458" y="276.49478"/><path d="m13.515748 276.49478 6.455553 10.00339-6.455553 9.87364z" fill="#13243c"/><path d="m.66145831 276.49478h13.383457v19.84375h-13.383457z" fill="#13243c"/><path d="m14.045047 277.15558v.15917l5.926254 9.18342-5.926254 9.06404v.11524h36.89749c.37625 0 .650608-.27711.650608-.6351v-17.25166c0-.35798-.274358-.63511-.650608-.63511z" fill="#7fffd4" filter="url(#a)" opacity=".428" stroke="#bababa" stroke-width="1.068123"/></g><path d="m8.6806103 7.9272058h-.9524995v3.8099992l3.3337492 2.00025.476251-.78105-2.8575007-1.69545zm-.3238503-3.1750003c-3.5051991 0-6.3436493 2.8447997-6.3436493 6.3499985 0 3.5052 2.8384502 6.350001 6.3436493 6.350001 3.51155 0 6.356351-2.844801 6.356351-6.350001 0-3.5051988-2.844801-6.3499985-6.356351-6.3499985zm.00634 11.4299995c-2.8066992 0-5.0799984-2.2733-5.0799984-5.080001 0-2.806699 2.2732992-5.0799982 5.0799994-5.0799982 2.806701 0 5.080002 2.2732992 5.080002 5.0799982 0 2.806701-2.273301 5.080001-5.080003 5.080001z" fill="#fff" stroke-width=".076306"/><g stroke="#000" stroke-linejoin="bevel" stroke-width="0"><g transform="matrix(.97631411 0 0 .95236729 1.954406 10.628034)"><path d="m18.204143 7.2436423-1.01797-3.83636h.520761l.583567 2.5148308q.09421.3951503.162247.7850669.146546-.6149691.172715-.7091771l.730112-2.5907206h.612352l.549547 1.941732q.206734.7222615.298325 1.3581657.07327-.3637477.191033-.8347878l.601885-2.4651099h.510293l-1.051989 3.83636h-.489359l-.808619-2.9230656q-.102058-.3663645-.120377-.450105-.06019.2643059-.112526.450105l-.813852 2.9230656z"/><path d="m24.338133 6.3486661.486741.060188q-.115143.426553-.426553.662073-.31141.2355201-.795534.2355201-.609736 0-.968249-.3742152-.355897-.3768321-.355897-1.0546065 0-.7013264.36113-1.0886261.361131-.3872996.936847-.3872996.557397 0 .910677.379449.35328.379449.35328 1.0676909 0 .04187-.0026.1256107h-2.072577q.02617.4579557.259072.7013264.232903.2433707.58095.2433707.259072 0 .442254-.1360782.183182-.1360783.290475-.4344037zm-1.546582-.7615148h1.551815q-.0314-.3506632-.177948-.5259948-.225053-.2721566-.583566-.2721566-.324495 0-.54693.2172019-.219819.2172018-.243371.5809495z"/><path d="m25.411057 7.2436423v-2.7791367h.423936v.4213193q.162248-.2957086.298326-.3899166.138695-.094208.303559-.094208.238137 0 .484125.1517796l-.162248.4370205q-.172714-.1020587-.345429-.1020587-.154397 0-.27739.094208-.122994.091591-.175332.2564551-.07851.2512214-.07851.5495468v1.4549906z"/><path d="m27.635413 7.2436423h-.43702v-3.83636h.47104v1.3686332q.298325-.3742152.761515-.3742152.256455 0 .484124.1046756.230286.1020587.376832.2904747.149163.1857992.232903.450105.08374.2643059.08374.5652482 0 .7144108-.35328 1.1043273-.35328.3899166-.847872.3899166-.491976 0-.771983-.4108517zm-.0052-1.4105034q0 .4998259.136079.7222615.222435.3637476.601884.3637476.308793 0 .533846-.2669227.225052-.2695396.225052-.8007682 0-.544313-.217202-.8033851-.214585-.2590721-.520761-.2590721-.308793 0-.533845.2695397-.225053.2669227-.225053.7745993z"/><path d="m32.084126 6.3486661.486741.060188q-.115143.426553-.426553.662073-.31141.2355201-.795534.2355201-.609735 0-.968249-.3742152-.355897-.3768321-.355897-1.0546065 0-.7013264.36113-1.0886261.361131-.3872996.936847-.3872996.557397 0 .910677.379449.353281.379449.353281 1.0676909 0 .04187-.0026.1256107h-2.072577q.02617.4579557.259072.7013264.232903.2433707.58095.2433707.259072 0 .442254-.1360782.183182-.1360783.290475-.4344037zm-1.546582-.7615148h1.551816q-.0314-.3506632-.177949-.5259948-.225052-.2721566-.583566-.2721566-.324495 0-.54693.2172019-.219819.2172018-.243371.5809495z"/><path d="m32.916296 7.2436423v-.4710401l1.965284-2.4572593q.209351-.2616889.397767-.4553387h-2.140615v-.4527219h2.747734v.4527219l-2.1537 2.6613766-.232904.2695396h2.449409v.4527219z"/><path d="m38.249517 6.9008298q-.261689.2224356-.50506.3140267-.240754.091591-.518144.091591-.457956 0-.703944-.2224356-.245987-.2250525-.245987-.5730988 0-.2041174.09159-.3715984.09421-.1700978.243371-.2721565.151779-.1020587.340195-.1543965.138695-.036636.418703-.070656.570482-.068039.840021-.1622471.0026-.096825.0026-.1229938 0-.2878579-.133461-.4056179-.180566-.1596303-.536463-.1596303-.332345 0-.491975.1177601-.157013.1151431-.232903.4108516l-.460573-.062805q.06281-.2957086.206735-.4762739.143929-.1831823.416085-.2800072.272157-.099442.63067-.099442.355897 0 .578333.083741.222436.08374.327111.211968.104676.1256107.146546.3192605.02355.1203769.02355.4344037v.6280535q0 .6568393.02879.8321709.0314.1727147.120377.3323449h-.491975q-.07327-.1465458-.09421-.3428125zm-.03925-1.0519896q-.256455.1046756-.769365.1779485-.290475.04187-.410852.094208-.120377.052338-.185799.1543965-.06542.099442-.06542.2224356 0 .1884161.141312.3140268.143929.1256107.418702.1256107.272156 0 .484125-.1177601.211968-.1203769.311409-.3271112.07589-.1596302.07589-.4710401z"/><path d="m39.416651 8.3087164v-3.8442108h.429169v.3611308q.15178-.2119681.342813-.3166436.191033-.1072925.463189-.1072925.355897 0 .628054.1831823.272156.1831822.410852.5181441.138695.332345.138695.7301122 0 .426553-.154397.7693655-.151779.3401956-.444871.5233779-.290475.1805654-.612352.1805654-.23552 0-.423936-.099442-.185799-.099442-.306176-.2512214v1.3529319zm.426553-2.4389411q0 .5364624.217201.7929176.217202.2564551.525995.2564551.314027 0 .536463-.2643058.225052-.2669228.225052-.8243202 0-.5312286-.219819-.7955344-.217202-.2643059-.520761-.2643059-.300942 0-.533845.2826241-.230286.2800072-.230286.8164695z"/><path d="m42.397287 8.3087164v-3.8442108h.42917v.3611308q.15178-.2119681.342813-.3166436.191033-.1072925.463189-.1072925.355897 0 .628054.1831823.272156.1831822.410851.5181441.138695.332345.138695.7301122 0 .426553-.154396.7693655-.15178.3401956-.444871.5233779-.290475.1805654-.612353.1805654-.23552 0-.423936-.099442-.185799-.099442-.306176-.2512214v1.3529321zm.426553-2.4389411q0 .5364624.217202.7929176.217202.2564551.525995.2564551.314027 0 .536462-.2643058.225053-.2669228.225053-.8243202 0-.5312286-.219819-.7955344-.217202-.2643059-.520761-.2643059-.300942 0-.533846.2826241-.230286.2800072-.230286.8164695z"/><path d="m47.280402 6.3486661.486742.060188q-.115143.426553-.426553.662073-.31141.2355201-.795535.2355201-.609735 0-.968249-.3742152-.355897-.3768316-.355897-1.054606 0-.7013264.361131-1.0886261.361131-.3872996.936847-.3872996.557397 0 .910677.379449.35328.379449.35328 1.0676909 0 .04187-.0026.1256107h-2.072576q.02617.4579557.259072.7013264.232903.2433707.580949.2433707.259072 0 .442255-.1360782.183182-.1360783.290474-.4344037zm-1.546581-.7615148h1.551815q-.0314-.3506632-.177948-.5259948-.225053-.2721566-.583567-.2721566-.324494 0-.54693.2172019-.219818.2172018-.24337.5809495z"/><path d="m48.353327 7.2436423v-2.7791367h.423936v.4213193q.162247-.2957086.298325-.3899166.138695-.094208.303559-.094208.238137 0 .484125.1517796l-.162247.4370205q-.172715-.1020587-.34543-.1020587-.154396 0-.27739.094208-.122994.091591-.175332.2564551-.07851.2512214-.07851.5495468v1.4549906z"/></g><path d="m45.634241 13.669261c-11.34418 0-21.032112 6.639507-24.957198 16.011673 3.925086 9.372166 13.613018 16.011673 24.957198 16.011673 11.344183 0 21.032113-6.639507 24.957199-16.011673-3.925086-9.372166-13.601673-16.011673-24.957199-16.011673zm0 26.686122c-6.261988 0-11.34418-4.782153-11.34418-10.674449s5.082192-10.674449 11.34418-10.674449 11.344183 4.782153 11.344183 10.674449-5.082195 10.674449-11.344183 10.674449zm0-17.079118c-3.754923 0-6.806508 2.871426-6.806508 6.404669 0 3.533242 3.051585 6.404669 6.806508 6.404669 3.754925 0 6.806509-2.871427 6.806509-6.404669 0-3.533243-3.051584-6.404669-6.806509-6.404669z" stroke="none" transform="matrix(.26458333 0 0 .26458333 21.611413 -.420039)"/></g></svg>