<svg height="80" viewBox="0 0 52.916665 21.166667" width="200" xmlns="http://www.w3.org/2000/svg" xmlns:xlink="http://www.w3.org/1999/xlink"><filter id="a" color-interpolation-filters="sRGB" height="1.065388" width="1.032255" x="-.016127" y="-.032694"><feGaussianBlur stdDeviation=".25231486"/></filter><g transform="translate(0 -275.83332)"><path d="m4.5180004 288.40126c.00226-6.27245.064123-7.73799.3395029-8.10439 1.2321044-1.64156 4.5153816-2.92786 8.6819027-3.40234.988252-.11235 4.555058-.13671 19.972704-.13671h18.768595v19.27617h-47.7615565zm0 0" fill="#2dd5a2" stroke-width=".187959"/><rect fill="none" height="19.84375" rx="1.311837" ry="1.295217" stroke="#13243c" stroke-width="1.322917" width="51.59375" x=".661458" y="276.49478"/><path d="m13.515748 276.49478 6.455553 10.00339-6.455553 9.87364z" fill="#13243c"/><path d="m.66145831 276.49478h13.383457v19.84375h-13.383457z" fill="#13243c"/><path d="m14.045047 277.15558v.15917l5.926254 9.18342-5.926254 9.06404v.11524h36.89749c.37625 0 .650608-.27711.650608-.6351v-17.25166c0-.35798-.274358-.63511-.650608-.63511z" fill="none" filter="url(#a)" opacity=".428" stroke="#13243c" stroke-width="1.068"/><g stroke-width=".264583"><path d="m25.658761 284.79001v-5.55556h1.678795l1.008035 3.7896.996666-3.7896h1.682585v5.55556h-1.042142v-4.37321l-1.102775 4.37321h-1.080037l-1.098986-4.37321v4.37321z"/><path d="m34.469593 283.50912 1.061089.17811q-.204638.5836-.648022.89056-.439594.30317-1.102775.30317-1.049721 0-1.553738-.68592-.397909-.54949-.397909-1.38699 0-1.00046.522966-1.56511.522965-.56844 1.322572-.56844.898136 0 1.417312.59497.519176.59117.496439 1.81522h-2.667882q.01137.4737.257693.73897.246324.26148.613916.26148.250114 0 .420646-.13642.170532-.13643.257693-.4396zm.06063-1.07625q-.01137-.46233-.238745-.70107-.227377-.24254-.553283-.24254-.348643 0-.57602.25391-.227376.2539-.223586.6897z"/><path d="m40.119894 284.79001h-1.064879v-2.05397q0-.65181-.06821-.84129-.06821-.19327-.223587-.29938-.151584-.10611-.367591-.10611-.276642 0-.496439.15159-.219797.15158-.303168.40169-.07958.25012-.07958.92467v1.8228h-1.064879v-4.02456h.989087v.59118q.526755-.68213 1.326362-.68213.352433 0 .644233.12884.291799.12506.439594.32212.151584.19706.208428.44717.06063.25012.06063.71624z"/><path d="m43.852655 284.79001v-.60255q-.219797.32212-.579809.50781-.356223.18569-.754132.18569-.405487 0-.727604-.17811-.322116-.17811-.466121-.50023-.144005-.32212-.144005-.89056v-2.54661h1.064879v1.84933q0 .84887.05684 1.04214.06063.18948.216007.30317.155374.10989.394119.10989.272852 0 .488859-.14779.216008-.15159.295589-.37138.07958-.22359.07958-1.08762v-1.69774h1.064879v4.02456z"/><path d="m26.817481 290.85975 1.091406-.10611q.09853.54949.397909.80718.303168.2577.814765.2577.541913 0 .814765-.22738.276641-.23116.276641-.53812 0-.19706-.117478-.33349-.113688-.14021-.401698-.24253-.197059-.0682-.898136-.24254-.901926-.22358-1.265728-.54949-.511597-.45854-.511597-1.11793 0-.42444.238745-.79203.242535-.37138.693498-.56465.454753-.19327 1.095196-.19327 1.045931 0 1.572686.45854.530545.45854.557072 1.22404l-1.121723.0493q-.072-.42823-.310748-.61392-.234955-.18948-.708656-.18948-.488859 0-.7655.20085-.178112.12885-.178112.34485 0 .19706.166743.33728.212218.17811 1.030773.37138.818554.19327 1.208884.4017.394119.20464.613916.56465.223586.35622.223586.88298 0 .47749-.265272.89434-.265272.41686-.750342.6215-.485069.20085-1.208884.20085-1.05351 0-1.618161-.48507-.564651-.48886-.67455-1.4211z"/><path d="m32.031978 290.59826q0-.53054.261482-1.02698.261483-.49644.738973-.75792.48128-.26148 1.072459-.26148.913294 0 1.496894.59497.583599.59117.583599 1.49689 0 .91329-.591179 1.51584-.587388.59876-1.481735.59876-.553282 0-1.0573-.25011-.500228-.25012-.761711-.7314-.261482-.48507-.261482-1.17857zm1.091406.0568q0 .59876.28422.91708.284221.31833.701077.31833.416857 0 .697288-.31833.28422-.31832.28422-.92466 0-.59118-.28422-.90951-.280431-.31832-.697288-.31832-.416856 0-.701077.31832-.28422.31833-.28422.91709z"/><path d="m38.042291 292.66739h-1.064879v-4.02456h.989087v.57223q.253904-.40549.454753-.53434.204638-.12884.462332-.12884.363802 0 .701077.20085l-.329696.92845q-.269062-.17432-.500228-.17432-.223587 0-.37896.12506-.155374.12126-.246325.44338-.08716.32212-.08716 1.3491z"/><path d="m41.884951 288.64283v.84887h-.727604v1.62195q0 .49265.01895.57602.02274.0796.09474.13264.07579.053.181901.053.147795 0 .428226-.10232l.09095.82614q-.371381.15916-.841292.15916-.28801 0-.519176-.0947-.231166-.0985-.341064-.25011-.106109-.15538-.147795-.41686-.03411-.18569-.03411-.75034v-1.75458h-.488857v-.84887h.488859v-.79961l1.068668-.62149v1.4211z"/></g></g><g fill="#2dd5a2"><g transform="matrix(.41735136 0 0 .40320059 9.047478 7.028676)"><path d="m8.293 5.707 1.414-1.414-4-4c-.391-.391-1.023-.391-1.414 0l-4 4 1.414 1.414 2.293-2.293v12.578h2v-12.578z"/><path d="m14.293 10.293-2.293 2.293v-12.578h-2v12.578l-2.293-2.293-1.414 1.414 4 4c.195.195.451.293.707.293s.512-.098.707-.293l4-4z"/></g><path d="m0 382.5h153v-51h-153zm0-306v51h459v-51zm0 178.5h306v-51h-306z" transform="matrix(.01401537 0 0 .02108271 2.373649 5.579022)"/></g></svg>